<svg xmlns="http://www.w3.org/2000/svg" viewBox="0 0 1200 760"><rect width="1200" height="760" fill="#fff7e9"/><g stroke="#d7bfc7" stroke-width="14" fill="none" opacity=".85"><path d="M-50 170 C260 130 370 280 690 230 S1040 130 1280 200"/><path d="M110 780 C160 520 390 460 500 280 S680 10 810-80"/><path d="M-20 520 C230 430 390 570 610 510 S950 380 1240 460"/><path d="M280 -30 C310 180 210 300 270 500 S430 700 470 800"/></g><g fill="#9dbf9e" opacity=".48"><path d="M55 80h290v170H55z"/><path d="M760 410h350v220H760z"/></g><g fill="#e66c5c" opacity=".25"><path d="M400 300l245-85 130 185-90 205-250-25-95-150z"/></g><rect x="385" y="255" width="430" height="250" rx="34" fill="#4f2446"/><text x="600" y="345" text-anchor="middle" fill="#ffd99a" font-family="Arial,sans-serif" font-size="28" font-weight="700" letter-spacing="4">GEORGETOWN</text><text x="600" y="420" text-anchor="middle" fill="white" font-family="Georgia,serif" font-size="70" font-weight="700">WARD 2 MAP</text><text x="600" y="465" text-anchor="middle" fill="#eadde5" font-family="Arial,sans-serif" font-size="22">PLACEHOLDER • REPLACE WITH FINAL BOUNDARY MAP</text></svg>